HIERARCHY
ROOT Hips
{
  OFFSET 0.0502701 92.146 0
  CHANNELS 6 Xposition Yposition Zposition Zrotation Xrotation Yrotation
  JOINT Bip01_Pelvis
  {
    OFFSET 0 0 0
    CHANNELS 6 Xposition Yposition Zposition Zrotation Xrotation Yrotation
    JOINT BN_Tai_01
    {
      OFFSET -4.6544 -2.06234 0
      CHANNELS 6 Xposition Yposition Zposition Zrotation Xrotation Yrotation
      JOINT BN_Tai_R_01
      {
        OFFSET 10.2279 -0.119812 3.68897
        CHANNELS 6 Xposition Yposition Zposition Zrotation Xrotation Yrotation
        JOINT BN_Tai_R_02
        {
          OFFSET 15.0421 0 1.52588e-005
          CHANNELS 6 Xposition Yposition Zposition Zrotation Xrotation Yrotation
          End Site
          {
            OFFSET 0 0 0
          }
        }
      }
      JOINT BN_Tai_L_01
      {
        OFFSET 10.2279 -0.119797 -3.68907
        CHANNELS 6 Xposition Yposition Zposition Zrotation Xrotation Yrotation
        JOINT BN_Tai_L_02
        {
          OFFSET 15.0421 0 0
          CHANNELS 6 Xposition Yposition Zposition Zrotation Xrotation Yrotation
          End Site
          {
            OFFSET 0 0 0
          }
        }
      }
    }
    JOINT Bip01_Spine
    {
      OFFSET 2.7319 1.49192 0
      CHANNELS 6 Xposition Yposition Zposition Zrotation Xrotation Yrotation
      JOINT Bip01_R_Thigh
      {
        OFFSET -2.85206 -1.24717 -6.20578
        CHANNELS 6 Xposition Yposition Zposition Zrotation Xrotation Yrotation
        JOINT Bip01_R_Calf
        {
          OFFSET 6.73247 0 0
          CHANNELS 6 Xposition Yposition Zposition Zrotation Xrotation Yrotation
          JOINT Bip01_R_HorseLink
          {
            OFFSET 8.08523 0 0
            CHANNELS 6 Xposition Yposition Zposition Zrotation Xrotation Yrotation
            JOINT Bip01_R_Foot
            {
              OFFSET 8.97518 0 0
              CHANNELS 6 Xposition Yposition Zposition Zrotation Xrotation Yrotation
              JOINT BN_Toe_R_30
              {
                OFFSET 1.58762 -0.234982 -0.295153
                CHANNELS 6 Xposition Yposition Zposition Zrotation Xrotation Yrotation
                JOINT BN_Toe_R_31
                {
                  OFFSET 3.03849 0 0
                  CHANNELS 6 Xposition Yposition Zposition Zrotation Xrotation Yrotation
                  End Site
                  {
                    OFFSET 0 0 0
                  }
                }
              }
              JOINT BN_Toe_R_00
              {
                OFFSET 1.65463 0.933666 1.02414
                CHANNELS 6 Xposition Yposition Zposition Zrotation Xrotation Yrotation
                JOINT BN_Toe_R_01
                {
                  OFFSET 3.51775 0 0
                  CHANNELS 6 Xposition Yposition Zposition Zrotation Xrotation Yrotation
                  End Site
                  {
                    OFFSET 0 0 0
                  }
                }
              }
              JOINT BN_Toe_R_20
              {
                OFFSET 1.47309 1.0106 -1.16708
                CHANNELS 6 Xposition Yposition Zposition Zrotation Xrotation Yrotation
                JOINT BN_Toe_R_21
                {
                  OFFSET 3.94896 0 0
                  CHANNELS 6 Xposition Yposition Zposition Zrotation Xrotation Yrotation
                  End Site
                  {
                    OFFSET 0 0 0
                  }
                }
              }
              JOINT BN_Toe_R_10
              {
                OFFSET 1.07522 1.64225 0.0223596
                CHANNELS 6 Xposition Yposition Zposition Zrotation Xrotation Yrotation
                JOINT BN_Toe_R_11
                {
                  OFFSET 4.09655 0 0
                  CHANNELS 6 Xposition Yposition Zposition Zrotation Xrotation Yrotation
                  End Site
                  {
                    OFFSET 0 0 0
                  }
                }
              }
              JOINT Bip01_R_Toe0
              {
                OFFSET 2.04238 1.88275 0
                CHANNELS 6 Xposition Yposition Zposition Zrotation Xrotation Yrotation
                End Site
                {
                  OFFSET 0 0 0
                }
              }
            }
          }
        }
      }
      JOINT Bip01_L_Thigh
      {
        OFFSET -2.85154 -1.24849 6.20577
        CHANNELS 6 Xposition Yposition Zposition Zrotation Xrotation Yrotation
        JOINT Bip01_L_Calf
        {
          OFFSET 6.73247 0 0
          CHANNELS 6 Xposition Yposition Zposition Zrotation Xrotation Yrotation
          JOINT Bip01_L_HorseLink
          {
            OFFSET 8.08524 0 0
            CHANNELS 6 Xposition Yposition Zposition Zrotation Xrotation Yrotation
            JOINT Bip01_L_Foot
            {
              OFFSET 8.97521 0 0
              CHANNELS 6 Xposition Yposition Zposition Zrotation Xrotation Yrotation
              JOINT BN_Toe_L_00
              {
                OFFSET 1.65461 0.933701 -1.02419
                CHANNELS 6 Xposition Yposition Zposition Zrotation Xrotation Yrotation
                JOINT BN_Toe_L_01
                {
                  OFFSET 3.51778 0 0
                  CHANNELS 6 Xposition Yposition Zposition Zrotation Xrotation Yrotation
                  End Site
                  {
                    OFFSET 0 0 0
                  }
                }
              }
              JOINT BN_Toe_L_10
              {
                OFFSET 1.07523 1.6422 -0.0221281
                CHANNELS 6 Xposition Yposition Zposition Zrotation Xrotation Yrotation
                JOINT BN_Toe_L_11
                {
                  OFFSET 4.09657 0 0
                  CHANNELS 6 Xposition Yposition Zposition Zrotation Xrotation Yrotation
                  End Site
                  {
                    OFFSET 0 0 0
                  }
                }
              }
              JOINT BN_Toe_L_30
              {
                OFFSET 1.58761 -0.234954 0.295135
                CHANNELS 6 Xposition Yposition Zposition Zrotation Xrotation Yrotation
                JOINT BN_Toe_L_31
                {
                  OFFSET 3.03847 0 0
                  CHANNELS 6 Xposition Yposition Zposition Zrotation Xrotation Yrotation
                  End Site
                  {
                    OFFSET 0 0 0
                  }
                }
              }
              JOINT BN_Toe_L_20
              {
                OFFSET 1.4731 1.01055 1.1673
                CHANNELS 6 Xposition Yposition Zposition Zrotation Xrotation Yrotation
                JOINT BN_Toe_L_21
                {
                  OFFSET 3.94897 0 0
                  CHANNELS 6 Xposition Yposition Zposition Zrotation Xrotation Yrotation
                  End Site
                  {
                    OFFSET 0 0 0
                  }
                }
              }
              JOINT Bip01_L_Toe0
              {
                OFFSET 2.04238 1.88276 0
                CHANNELS 6 Xposition Yposition Zposition Zrotation Xrotation Yrotation
                End Site
                {
                  OFFSET 0 0 0
                }
              }
            }
          }
        }
      }
      JOINT Bip01_Spine1
      {
        OFFSET 8.6167 -0.00679016 0
        CHANNELS 6 Xposition Yposition Zposition Zrotation Xrotation Yrotation
        JOINT BN_Wing_R_01
        {
          OFFSET 0.267445 -6.12421 -7.49305
          CHANNELS 6 Xposition Yposition Zposition Zrotation Xrotation Yrotation
          JOINT BN_Wing_R_02
          {
            OFFSET 14.7158 0 0
            CHANNELS 6 Xposition Yposition Zposition Zrotation Xrotation Yrotation
            JOINT BN_Wing_R_03
            {
              OFFSET 19.0858 0 0
              CHANNELS 6 Xposition Yposition Zposition Zrotation Xrotation Yrotation
              JOINT BN_Wing_R_05
              {
                OFFSET 2.68908 -0.270637 0.785261
                CHANNELS 6 Xposition Yposition Zposition Zrotation Xrotation Yrotation
                JOINT BN_Wing_R_06
                {
                  OFFSET 21.1083 0 0
                  CHANNELS 6 Xposition Yposition Zposition Zrotation Xrotation Yrotation
                  End Site
                  {
                    OFFSET 0 0 0
                  }
                }
              }
              JOINT BN_Wing_R_04
              {
                OFFSET 27.642 0 0
                CHANNELS 6 Xposition Yposition Zposition Zrotation Xrotation Yrotation
                End Site
                {
                  OFFSET 0 0 0
                }
              }
            }
          }
        }
        JOINT BN_Wing_L_01
        {
          OFFSET 0.267452 -6.12421 7.49305
          CHANNELS 6 Xposition Yposition Zposition Zrotation Xrotation Yrotation
          JOINT BN_Wing_L_02
          {
            OFFSET 14.7158 0 0
            CHANNELS 6 Xposition Yposition Zposition Zrotation Xrotation Yrotation
            JOINT BN_Wing_L_03
            {
              OFFSET 19.0858 0 0
              CHANNELS 6 Xposition Yposition Zposition Zrotation Xrotation Yrotation
              JOINT BN_Wing_L_05
              {
                OFFSET 2.68908 -0.270635 -0.785254
                CHANNELS 6 Xposition Yposition Zposition Zrotation Xrotation Yrotation
                JOINT BN_Wing_L_06
                {
                  OFFSET 21.1083 0 0
                  CHANNELS 6 Xposition Yposition Zposition Zrotation Xrotation Yrotation
                  End Site
                  {
                    OFFSET 0 0 0
                  }
                }
              }
              JOINT BN_Wing_L_04
              {
                OFFSET 27.642 0 1.14441e-005
                CHANNELS 6 Xposition Yposition Zposition Zrotation Xrotation Yrotation
                End Site
                {
                  OFFSET 0 0 0
                }
              }
            }
          }
        }
        JOINT Bip01_Neck
        {
          OFFSET 7.59958 -1.43237 0
          CHANNELS 6 Xposition Yposition Zposition Zrotation Xrotation Yrotation
          JOINT Bip01_Neck1
          {
            OFFSET 3.64749 -0.00262451 0
            CHANNELS 6 Xposition Yposition Zposition Zrotation Xrotation Yrotation
            JOINT Bip01_Neck2
            {
              OFFSET 3.32331 -0.00284576 0
              CHANNELS 6 Xposition Yposition Zposition Zrotation Xrotation Yrotation
              JOINT Bip01_Head
              {
                OFFSET 4.63256 -0.573471 0
                CHANNELS 6 Xposition Yposition Zposition Zrotation Xrotation Yrotation
                JOINT BN_Jaw
                {
                  OFFSET 1.05386 2.23561 0
                  CHANNELS 6 Xposition Yposition Zposition Zrotation Xrotation Yrotation
                  End Site
                  {
                    OFFSET 0 0 0
                  }
                }
              }
            }
          }
        }
      }
    }
  }
}
MOTION
Frames:	4
Frame Time:	0.0333333
22.1373 83.5478 2.83023 149.817 -87.3617 -115.11 0 0 0 -89.9946 9.57719 -89.9948 -4.65442 -2.06234 2.66454e-015 -23.1666 2.01603 -179.754 10.228 -0.119785 3.68891 43.5873 79.6159 -48.4705 15.0421 -2.38419e-007 0 1.82298 -4.5166 -50.89 10.2278 -0.11977 -3.68914 -130.323 77.9139 129.936 15.0421 8.88179e-016 -3.8147e-006 -6.79906 3.69185 -50.5809 3.04981 0.628586 -9.31323e-010 -11.146 -0.123092 -0.395009 -2.91535 -1.19183 -6.18861 -106.981 -6.30229 173.144 6.73249 -1.42109e-014 -1.77636e-015 -90.6559 8.78725e-008 1.01005e-005 8.08525 7.10543e-015 -1.77636e-015 56.2649 8.17712e-006 4.55851e-006 8.97522 1.14441e-005 -1.77636e-015 -60.2296 -0.75913 1.07178 1.58763 -0.234978 -0.295148 165.71 -4.57787 168.015 3.03847 -7.6294e-006 3.8147e-006 -24.13 -0.0473337 0.105663 1.65462 0.933662 1.02414 91.0925 31.6943 -31.3007 3.51775 7.10543e-015 1.59872e-014 13.1712 -0.0680995 -0.291044 1.4731 1.01058 -1.16707 85.3005 -12.8905 19.9843 3.94897 4.61853e-013 -7.62939e-006 1.26987 -3.41596 1.74891 1.07522 1.64223 0.0223646 74.7401 -5.99009 -1.68756 4.09657 7.6294e-006 2.38418e-007 16.4724 0.00321223 0.0108279 2.04238 1.88274 4.78691e-007 87.3684 -3.19317 25.6714 -2.82733 -1.21798 6.22236 -32.8344 0.511499 172.459 6.73248 -7.6294e-006 1.90735e-006 -37.4534 -7.6362e-006 9.61144e-006 8.08523 -5.72205e-006 9.53674e-007 35.4725 -1.1921e-005 8.7434e-006 8.9752 0 9.53674e-007 -56.9392 -10.223 -0.557662 1.65462 0.933685 -1.02419 40.9464 -56.2498 24.979 3.51776 3.8147e-006 7.62939e-006 -10.594 -0.000166895 -2.03725e-005 1.07522 1.64219 -0.0221257 14.793 -7.14476 1.45513 4.09656 -3.81469e-006 -3.55271e-015 10.0954 1.05868e-005 -1.78469e-006 1.58763 -0.234978 0.295135 176.454 6.19725 178.521 3.03848 -1.14441e-005 7.4607e-014 -39.3978 0.000626248 -0.00074507 1.4731 1.01056 1.1673 15.0648 26.6177 -5.0868 3.94897 -3.8147e-006 3.8147e-006 17.611 4.00911e-006 -1.11648e-006 2.04238 1.88274 3.83463e-008 122.423 1.97609 -29.1546 8.61717 -0.0068512 -9.31324e-010 11.4153 -0.562772 1.1212 0.267441 -6.12426 -7.49305 -81.9407 -12.1099 120.015 14.7158 -3.55271e-015 -2.84217e-014 47.7371 1.67176 -1.41672 19.0859 -9.53674e-007 -1.90735e-006 -56.5809 12.7433 7.53318 2.6891 -0.270629 0.785294 -43.6211 5.21964 -3.14466 21.1082 -7.62939e-006 -1.08002e-012 -0.0888407 -1.54498 -1.14138 27.642 -7.62939e-006 7.6294e-006 -2.00534 -3.25268 -1.85907 -0.129095 -6.32226 7.3296 -81.6043 15.3992 -119.094 14.7158 -7.62939e-006 1.90735e-006 49.6871 -1.61027 1.45858 19.0859 -2.86102e-006 3.8147e-006 -56.5808 -12.7433 -7.53316 2.68911 -0.270645 -0.785309 -43.6211 -5.21966 3.14466 21.1083 -7.62939e-006 -3.8147e-006 -0.088843 1.54498 1.14139 27.642 -7.62939e-006 2.13163e-014 -2.00535 3.25268 1.85906 7.59941 -1.43241 9.31324e-010 2.61608 -2.37802 3.45567 3.6492 -0.00226212 -9.31598e-010 -5.11636 1.78381 -1.76194 3.32334 -0.00289154 9.31264e-010 16.5202 0.953486 -5.27142 4.63258 -0.573464 -6.97646e-011 -1.60079 -2.2482 3.85581 1.05391 2.23562 1.6756e-010 -99.8374 -0.0451203 -179.979 
20.6803 82.5512 2.96212 111.954 -87.5086 -169.317 0 0 0 -89.9946 9.57725 -89.9947 -4.65442 -2.06234 0 -21.8576 2.01654 -179.802 10.228 -0.119785 3.68891 39.8078 80.4479 -37.7225 15.0421 -2.38419e-007 7.10542e-015 1.74877 -4.58723 -50.7246 10.2278 -0.11977 -3.68914 -133.033 78.5139 139.636 15.0421 -8.88179e-016 -3.8147e-006 -6.82859 3.75096 -50.4103 3.04981 0.628586 -9.31324e-010 -10.3195 -0.116517 -0.184131 -2.90953 -1.1513 -6.19909 -107.308 -6.66207 174.042 6.73249 1.42109e-014 4.44089e-015 -85.9793 9.11084e-007 1.00597e-005 8.08525 -3.55271e-015 -8.88178e-016 57.3731 -1.73242e-007 -1.00177e-006 8.97522 1.14441e-005 1.77636e-015 -67.7777 -0.0752286 0.0611423 1.58763 -0.234978 -0.295148 166.369 -4.80368 168.12 3.03847 -7.6294e-006 3.8147e-006 -21.8172 -0.0454388 0.113501 1.65462 0.933662 1.02414 89.6892 34.4216 -27.0285 3.51775 0 8.88178e-015 27.5609 -0.149327 -0.286134 1.4731 1.01058 -1.16707 88.8508 -12.5295 18.873 3.94897 4.54747e-013 -7.62939e-006 18.2356 -3.60681 3.18753 1.07522 1.64223 0.0223646 75.8851 -5.99147 -1.64914 4.09657 7.6294e-006 2.38418e-007 29.7986 -0.0242483 -0.0423631 2.04238 1.88274 4.78707e-007 87.3762 -3.1474 25.8148 -2.8669 -1.17677 6.21245 -33.0462 0.310104 172.215 6.73248 -7.6294e-006 1.90735e-006 -37.0768 -1.7216e-006 1.65301e-006 8.08523 -5.72205e-006 9.53674e-007 37.723 -1.11341e-005 9.08095e-006 8.9752 0 9.53674e-007 -60.6823 -10.0942 -0.776714 1.65462 0.933685 -1.02419 40.9464 -56.2498 24.979 3.51776 3.8147e-006 7.62939e-006 -10.594 -3.18958e-006 1.02577e-005 1.07522 1.64219 -0.0221257 14.793 -7.14477 1.45513 4.09656 -3.81469e-006 3.55271e-015 10.0954 1.06656e-005 -1.83256e-006 1.58763 -0.234978 0.295135 176.454 6.19729 178.521 3.03848 -1.14441e-005 2.4869e-014 -39.3903 0.000730292 -0.000871656 1.4731 1.01056 1.1673 15.0648 26.6177 -5.08679 3.94897 -3.8147e-006 3.8147e-006 17.6182 7.12025e-006 8.04636e-006 2.04238 1.88274 4.8855e-008 122.375 1.94087 -29.19 8.61717 -0.0068512 -9.31324e-010 16.2606 -0.645206 1.00581 0.267441 -6.12426 -7.49305 -82.1303 -12.5107 131.035 14.7158 0 1.42109e-014 45.6878 1.73513 -1.36835 19.0859 -9.53674e-007 -1.90735e-006 -44.5972 11.748 17.3184 2.6891 -0.27063 0.785294 -43.6214 6.59887 -1.2039 21.1082 -7.62939e-006 -1.15818e-012 0.671565 -1.37643 2.86964 27.642 -7.62939e-006 7.6294e-006 -2.1178 -3.28851 5.90026 -0.0706531 -6.3317 7.32191 -81.8652 15.3156 -129.938 14.7158 -7.62939e-006 1.90735e-006 47.0055 -1.69497 1.40041 19.0859 -2.86102e-006 3.8147e-006 -44.5972 -11.7479 -17.3184 2.68911 -0.270645 -0.785309 -43.6214 -6.59887 1.20388 21.1083 -7.62939e-006 -3.8147e-006 0.671566 1.37643 -2.86966 27.642 -7.62939e-006 1.42109e-014 -2.1178 3.28851 -5.9003 7.59941 -1.43241 9.31325e-010 6.94776 -2.74836 3.82486 3.6492 -0.00226212 -9.31483e-010 -2.95347 1.773 -1.85809 3.32334 -0.00289154 9.31296e-010 16.9623 0.274195 -5.67221 4.63258 -0.573464 -6.24176e-011 -3.55847 -1.49455 4.10661 1.05391 2.23562 7.27551e-011 -98.9209 -0.0264588 -179.976 
19.3767 81.6694 3.04473 89.1503 -86.5918 150.821 0 0 0 -89.9947 9.57722 -89.9947 -4.65442 -2.06234 1.77636e-015 -20.5692 2.00985 -179.865 10.228 -0.119785 3.68891 35.2702 80.8764 -26.8306 15.0421 -2.38419e-007 -1.42108e-014 2.18852 -4.67221 -49.3941 10.2278 -0.11977 -3.68914 -135.78 78.7461 148.774 15.0421 1.77636e-015 -3.8147e-006 -6.59513 3.91732 -49.1178 3.04981 0.628586 -9.31323e-010 -9.52674 -0.106585 0.015683 -2.90195 -1.1125 -6.20887 -107.751 -7.10884 174.865 6.73249 1.42109e-014 6.21725e-015 -81.0071 1.77956e-006 9.94288e-006 8.08525 -4.88498e-015 -6.21725e-015 58.073 -1.85487e-007 -9.99595e-007 8.97522 1.14441e-005 0 -73.8695 0.576767 -0.988372 1.58763 -0.234978 -0.295148 166.978 -4.99643 168.162 3.03847 -7.6294e-006 3.8147e-006 -19.5494 -0.0430686 0.121284 1.65462 0.933662 1.02414 89.623 35.521 -25.242 3.51775 7.10543e-015 7.10543e-015 33.4909 -0.180155 -0.272296 1.4731 1.01058 -1.16707 92.0382 -11.799 18.4131 3.94897 4.40537e-013 -7.62939e-006 25.2683 -3.68241 4.18239 1.07522 1.64223 0.0223646 76.9122 -5.99485 -1.69277 4.09657 7.6294e-006 2.38418e-007 35.3074 -0.0148762 -0.0210224 2.04238 1.88274 4.78718e-007 87.3837 -3.10251 25.9554 -2.9057 -1.13635 6.20272 -33.5199 0.102838 172.049 6.73248 -7.6294e-006 1.90735e-006 -36.6862 -1.63799e-006 1.64692e-006 8.08523 -5.72205e-006 9.53674e-007 39.948 -1.06144e-005 9.55542e-006 8.9752 0 9.53674e-007 -64.287 -9.96353 -0.948768 1.65462 0.933685 -1.02419 40.9464 -56.2498 24.979 3.51776 3.8147e-006 7.62939e-006 -10.594 -3.18142e-006 1.0232e-005 1.07522 1.64219 -0.0221257 14.7929 -7.14477 1.45513 4.09656 -3.81469e-006 8.88178e-016 10.0954 1.07331e-005 -1.83706e-006 1.58763 -0.234978 0.295135 176.454 6.19741 178.521 3.03848 -1.14441e-005 8.88178e-015 -39.383 0.000817097 -0.000977273 1.4731 1.01056 1.1673 15.0648 26.6177 -5.08679 3.94897 -3.8147e-006 3.8147e-006 17.6252 7.14478e-006 8.02982e-006 2.04238 1.88274 5.2702e-008 122.327 1.90636 -29.2247 8.61717 -0.0068512 -9.31324e-010 19.9042 -0.739135 0.907295 0.267441 -6.12426 -7.49305 -82.2884 -12.7818 139.336 14.7158 -7.10543e-015 0 44.1626 1.78346 -1.33501 19.0859 -9.53674e-007 -1.90735e-006 -33.5834 10.2225 27.06 2.6891 -0.27063 0.785294 -43.7058 7.83689 0.553187 21.1082 -7.62939e-006 -1.08358e-012 1.40381 -1.16039 6.80003 27.642 -7.62939e-006 7.62939e-006 -2.57783 -3.30137 12.8875 -0.0133265 -6.34096 7.31436 -82.2233 15.1256 -138.045 14.7158 -7.62939e-006 1.90735e-006 44.8504 -1.76171 1.35138 19.0859 -2.86102e-006 3.8147e-006 -33.5834 -10.2224 -27.06 2.68911 -0.270645 -0.785309 -43.7058 -7.83691 -0.553184 21.1083 -7.62939e-006 -3.8147e-006 1.40381 1.16039 -6.80004 27.642 -7.62939e-006 3.55271e-015 -2.57773 3.30145 -12.891 7.59941 -1.43241 9.31324e-010 10.3733 -3.03293 4.14014 3.6492 -0.00226212 -9.3137e-010 -0.988396 1.75512 -1.92969 3.32334 -0.00289154 9.31318e-010 17.2337 -0.292744 -5.94668 4.63258 -0.573464 -2.49738e-011 -5.31869 -1.00639 4.31664 1.05391 2.23562 2.33475e-011 -98.0223 -0.0080109 -179.973 
18.4243 80.8471 3.0783 79.9886 -85.3885 126.587 0 0 0 -89.9947 9.57726 -89.9947 -4.65442 -2.06234 0 -19.3257 1.99802 -179.971 10.228 -0.119785 3.68891 31.2314 80.9886 -17.1937 15.0421 -2.38419e-007 -9.76996e-015 3.27654 -4.7301 -46.6953 10.2278 -0.11977 -3.68914 -137.755 78.7187 156.384 15.0421 1.77636e-015 -3.8147e-006 -6.04218 4.22655 -46.5217 3.04981 0.628586 -9.31323e-010 -8.75826 -0.0999754 0.206295 -2.8962 -1.07427 -6.21875 -108.364 -7.68409 175.602 6.73249 2.84217e-014 0 -75.6172 2.465e-006 9.79347e-006 8.08525 0 -7.10543e-015 58.2771 -1.8901e-007 -9.98905e-007 8.97522 1.14441e-005 8.88179e-016 -78.2793 1.15469 -2.19444 1.58763 -0.234978 -0.295148 167.469 -5.07195 168.14 3.03847 -7.6294e-006 3.8147e-006 -18.0882 -0.0416984 0.127659 1.65462 0.933662 1.02414 91.019 34.5382 -25.5629 3.51775 0 1.42109e-014 33.3405 -0.188404 -0.286394 1.4731 1.01058 -1.16707 95.2822 -10.5041 18.8256 3.94897 4.54747e-013 -7.62939e-006 24.8401 -3.58104 4.86691 1.07522 1.64223 0.0223646 77.9373 -6.00982 -1.56684 4.09657 7.6294e-006 2.38418e-007 35.1019 -0.0102447 -0.0145935 2.04238 1.88274 4.78681e-007 87.3911 -3.05715 26.0974 -2.9412 -1.09681 6.19311 -34.2325 -0.0546123 171.805 6.73248 -7.6294e-006 1.90735e-006 -36.2775 -1.36736e-006 1.64048e-006 8.08523 -5.72205e-006 9.53674e-007 42.215 -1.03131e-005 1.01529e-005 8.9752 -3.55271e-015 9.53674e-007 -67.8527 -9.8385 -1.07945 1.65462 0.933685 -1.02419 40.9464 -56.2498 24.979 3.51776 3.8147e-006 7.62939e-006 -10.594 -7.04254e-006 9.45249e-006 1.07522 1.64219 -0.0221257 14.7929 -7.14478 1.45514 4.09656 -3.81469e-006 1.33227e-015 10.0954 1.07852e-005 -1.80812e-006 1.58763 -0.234978 0.295135 176.454 6.1972 178.521 3.03848 -1.14441e-005 1.95399e-014 -39.3755 0.00090394 -0.00108301 1.4731 1.01056 1.1673 15.0648 26.6177 -5.08679 3.94897 -3.8147e-006 3.8147e-006 17.6323 7.04628e-006 8.07475e-006 2.04238 1.88274 5.09393e-008 122.279 1.87153 -29.2597 8.61717 -0.0068512 -9.31323e-010 22.0312 -0.831375 0.817417 0.267441 -6.12426 -7.49305 -82.5207 -12.92 143.683 14.7158 0 -7.10543e-015 43.1868 1.81292 -1.31192 19.0859 -9.53674e-007 -1.90735e-006 -25.1152 8.32596 35.9271 2.6891 -0.27063 0.785294 -43.8155 8.74853 1.85759 21.1082 -7.62939e-006 -8.31335e-013 1.89088 -1.02244 10.3739 27.642 -7.62939e-006 7.62939e-006 -3.60152 -3.35718 18.0533 0.0382254 -6.3503 7.30674 -82.7102 14.8726 -142.185 14.7158 -7.62939e-006 1.90735e-006 43.3825 -1.80613 1.31698 19.0859 -2.86102e-006 3.8147e-006 -25.1152 -8.32596 -35.9271 2.68911 -0.270645 -0.785309 -43.8155 -8.74854 -1.85759 21.1083 -7.62939e-006 -3.8147e-006 1.89089 1.02244 -10.3739 27.642 -7.62939e-006 1.77636e-014 -3.60152 3.35718 -18.0533 7.59941 -1.43241 9.31322e-010 12.6369 -3.22997 4.38184 3.6492 -0.00226212 -9.3128e-010 0.691007 1.74762 -1.95882 3.32334 -0.00289154 9.31319e-010 17.2869 -0.708795 -6.07864 4.63258 -0.573464 3.95861e-011 -6.88086 -0.820905 4.49597 1.05391 2.23562 3.12372e-012 -97.1147 0.0107574 -179.97 
